<svg xmlns="http://www.w3.org/2000/svg" viewBox="0 0 139.42 118.09"><defs><style>.cls-1{fill:#fff;}.cls-2{fill:#333;}</style></defs><g id="Layer_2" data-name="Layer 2"><g id="Layer_1-2" data-name="Layer 1"><path class="cls-1" d="M76.88,30.67c1.09.57-8.91.59-14.37,20.89L40.59,46.83S55.08,19.36,76.88,30.67Z"/><path class="cls-1" d="M96.12,110c-1,.65,9.64-14.36-.85-32.57L108.63,61.8S127.4,90.49,96.12,110Z"/><path class="cls-1" d="M25.4,83.6c0-1.23,5.11,7.53,26.17,9.19l7,18.18S26.09,108.66,25.4,83.6Z"/><path class="cls-1" d="M68.93,56.8s-8.24.34-6.93,18-.14,12.68-.14,12.68,14.86,2.4,15.75-.85-6.14-7-6.64-12.32C70.37,67.79,82.72,59.37,68.93,56.8Z"/><path class="cls-2" d="M81.66,46.12c-9-20-12.72-7-18.37,5.41-.48.75-.88.83-1.72.51-5.67-2.25-11.85-1.88-17.81-2.41-2.11-.24-7.71-.07-4.88-3.39,6-9.56,15.19-17.69,26.59-19.76,13.2-2.45,28.81,3.18,35.06,15.57,2.42,5.64-.82,4.51,5.86,4.87,1.35.32-.13,1.65-.65,2.11-4.11,3.32-7.88,7-11.63,10.7-1.15.91-2.66,3.11-4.1,1.5-4.35-4-8.84-7.82-13.11-11.9C74.1,46.49,79.83,46.53,81.66,46.12Zm-13-16.85a25.34,25.34,0,0,0-14.16,4.11c-1.74.5-13.47,12-10.35,12.52,5.52.51,11.43.43,16.41,3.17.64.38.85.31,1.16-.37,2.92-7,5.92-14.07,13-17.61C76.71,29.31,69.39,29.36,68.62,29.27Z"/><path class="cls-2" d="M40.3,76.07c-1.64,4.39-4.19,8.46-4.77,13.17a56.15,56.15,0,0,0,12.24,1.37c1.77.3,4.84-1.41,5.57.88,2.17,6.56,4.52,13.07,8.14,19,1.1,2-6.32.66-7.44.92-13.57-.83-28.55-10.2-30.38-24.56-1.12-9.1,2-18.33,7.27-25.68.15-1.87-1.48-3.69-1.43-5.66-.06-.88.36-1.18,1.22-1L49.58,58c2.79.45,3.44.19,1.6,2.93a51,51,0,0,0-5.31,13.15C44.47,81.18,45.37,84.17,40.3,76.07Zm14.59,32.55c.76.13,2-.06,1.3-1.07a39.19,39.19,0,0,1-2.82-5.79c-1.1-1.93-1.52-5.4-3.22-6.64-9.19-.55-17.54-1.61-22.86-10a.63.63,0,0,0-1.18.41C26.66,99.8,42,107.89,54.89,108.62Z"/><path class="cls-2" d="M79.34,111.43c-.58,1-2.94,8.26-4.11,6.34a140.9,140.9,0,0,1-7-19.64c-.12-.91-1-2.55.36-2.79,1.79-.39,3.57-.77,5.36-1.12a99.14,99.14,0,0,0,15.3-3.79c1.43.09-2.37,5.29-2.74,6.2,3.7.31,8,0,11.13-2.21,2.51-2.21-.73-8.78-1.53-11.61-.5-2-3.08-4-2.38-6.14,2.91-3.91,6.16-7.58,9.29-11.32,2.13-2.31,2.73-5.38,4.3-8,.59-.73.85-.75,1.49-.1,5.82,6.8,6.2,16.62,6.35,25.18C115.7,100,97.44,120.85,79.34,111.43ZM112.77,81c-.09-6.92-1-12-4-17.66-.32-.58-.82-.59-1.11,0-2.66,5.27-7.4,9-10.63,13.87-.58,1.27,1.15,2.51,1.49,3.74,4.42,8.08,3.23,17.7-.4,25.83-.32.7.32.89.89.7C108,100.6,112.64,91.41,112.77,81Z"/><path class="cls-2" d="M60.61,75.93c-.15-2.25.69-5.56.67-7.5A9.52,9.52,0,0,1,66.1,56.79c.75-.41-.09-1.43,0-2.11-.67-4.1,4.89-3.09,7.41-2.8,3,.42.58,3.33,1.24,5,1.12,3,5.7,6,2.25,9.12-1.69,1.09-4.13,2.46-4.89,4.13-.59,1.3.6,3,.75,4.4.08.68-.73,2.3,0,3.89s2.87,3.16,4.25,3.76c1.85.75,2.71,1.78,2.28,3.5-.54,3.78-4.06,3.73-7,3.22a2.09,2.09,0,0,0-1.16.11c-1.45.58-3.14,1.41-4.21-.18-.15-.22-.28-.13-.46-.06-4.79,2.78-6.2-1.82-5.85-5.84C60.64,82.92,60.81,78.85,60.61,75.93Zm11.44,5.71c-3.54.71-1.35-2.56-2.47-4.13-2.2-1.54.88-4-1.49-5.67-2.84-2,4.73-5.56,6-8.11,1-1.09.05-2.73-.51-3.75-1.47-2.65-3.27-1.48-5.45-1.66-1.43,1.07-2.1,2.47-3.4,3.75-1.58,1.75-.89,4.18-.85,6.29-.29,5.34-1,9.68-1.07,15,.39,7.07,3.15,1.44,5.28,3,.65.77,2.08.17,2.74-.18,1.87-1.7,3.67,2.16,4.74-.65C75.88,82.53,72.52,84.86,72.05,81.64Z"/><path class="cls-2" d="M7.33,61.31a4,4,0,0,0,.46.08c.81.06,1.63,0,2.43.11,1.29.1,2.61.16,3.89.38a3.45,3.45,0,0,1,1.24.55.82.82,0,0,1-.27,1.37A2.89,2.89,0,0,1,14,64a2.55,2.55,0,0,1-.39,0l-2.88,0c-1.16,0-2.33,0-3.5-.08-.85,0-3.84-.16-4.49-.21A6,6,0,0,1,1,63.5c-.39-.15-1-.07-1-1.18s.74-1.18,2.44-2c1.35-.67,2-.9,3.38-1.52l2-.88a.06.06,0,0,0,0-.12c-1.66-.09-3.25-.16-4.84-.27a11,11,0,0,1-1.8-.28,1,1,0,0,1-.91-1A1,1,0,0,1,1,55.1a2.59,2.59,0,0,1,1-.24c1.52,0,3.05.15,4.57.24,1.24.07,2.48.16,3.72.22s2.32.08,3.48.18a3.46,3.46,0,0,1,1.42.39,1,1,0,0,1,0,1.81c-1,.55-2,1-3,1.46s-2.24,1-3.36,1.45c-.5.21-1,.38-1.53.57C7.12,61.24,7.23,61.29,7.33,61.31Z"/><path class="cls-2" d="M19.05,34.93c.92-.08,1.79-.15,2.65-.24,1.11-.1,2.22-.28,3.33-.32a1.32,1.32,0,0,1,1.35,1.81,1.23,1.23,0,0,1-1.12.83c-.72.08-1.43.12-2.15.19l-2.69.26a25.12,25.12,0,0,0-2.69.36c.78.53,1.55,1.06,2.34,1.58a7.58,7.58,0,0,1,2,1.83,1.07,1.07,0,0,1,.08,1.09c-.15.38-.48.42-.84.42A4.38,4.38,0,0,1,19.27,42c-2.12-1.24-4.25-2.48-6.35-3.78a8,8,0,0,1-2.48-2.29,3.88,3.88,0,0,1-.21-4A4.12,4.12,0,0,1,14,29.36a4.59,4.59,0,0,1,4.18,1.93A3.83,3.83,0,0,1,19.05,34.93Zm-3.91,1.38c.4-.52.81-1,1.14-1.49a1.85,1.85,0,0,0,.22-.9,2.27,2.27,0,0,0-3-1.72A1.58,1.58,0,0,0,13,34.74C13.63,35.32,14.39,35.78,15.14,36.31Z"/><path class="cls-2" d="M35.51,19.37l2.13,2.75c1.44-.55,3.1-2.9,4.66-1.88a1.25,1.25,0,0,1,0,2c-1.49,1-3,2-4.49,2.95-2.19,1.46-4.55-3.89-5.79-5.56s-4.84-4.85-2.82-6.92a37.2,37.2,0,0,1,4.28-3.23,1.36,1.36,0,0,1,1.67.31c1.09,2-2,3-3.06,4.29l1.62,2.79C38.35,13.82,40.67,16,35.51,19.37Z"/><path class="cls-2" d="M59.12,0c1.34,0,2.39.17,3,1.26C62.64,2,61.82,3,61,2.82a3.94,3.94,0,0,0-5,3.41c-.53,4,2.86,8.28,6,5a1.26,1.26,0,0,1,1.39-.48c2.8,1-.57,3.55-2,4C52.15,17.22,49.79.58,59.12,0Z"/><path class="cls-2" d="M112.56,15c.8,1.06,1.25,2,.72,3.17a1.07,1.07,0,0,1-1.93,0,3.94,3.94,0,0,0-5.66-2c-3.63,1.9-5.07,7.14-.55,7.75a1.26,1.26,0,0,1,1.2.85c.84,2.84-3.22,1.6-4.46.68C94.5,19.31,106.65,7.7,112.56,15Z"/><path class="cls-2" d="M119.09,38.67c.83,1.35,1.6,2.65,2.4,3.93a1.49,1.49,0,0,1-.63,2.39,1.54,1.54,0,0,1-1.77-.81q-1.47-2.59-2.92-5.21a1.66,1.66,0,0,1,.66-2.44c1.1-.69,2.24-1.33,3.36-2,1.58-.94,3.14-1.9,4.73-2.82a15,15,0,0,1,2-.95,1.33,1.33,0,0,1,1.67.67,1.36,1.36,0,0,1-.59,1.64c-1.37.9-2.76,1.77-4.14,2.66-.78.5-1.56,1-2.35,1.51S119.91,38.18,119.09,38.67Z"/><path class="cls-2" d="M81.71,14.39c.31-1.36.72-2.65,1.17-4.05.21-.63.61-1.52.84-2.18a3.32,3.32,0,0,0-.51-2.55c-.49-1.07-1-2.13-1.5-3.2A1.19,1.19,0,0,1,82.1.9c1.78-1.18,3,2.72,3.63,3.87.19.4.39.44.74.22a37.76,37.76,0,0,1,3.62-1.9,1.23,1.23,0,0,1,1,2.25c-1.27.69-2.51,1.42-3.77,2.1a1.62,1.62,0,0,0-1,1.15c-.58,2.17-1.28,4.32-2,6.43C83.61,16.61,81.24,16,81.71,14.39Z"/><path class="cls-2" d="M128.19,58.79c.7,0,1.4-.13,2.1-.16,2.15-.1,4.3-.2,6.46-.28.51,0,1,0,1.54,0a1.34,1.34,0,0,1,1.1,1.09,1.19,1.19,0,0,1-.6,1.41,6.31,6.31,0,0,1-1.49.4c-.69.11-1.39.18-2.09.23-1,.07-1.92.1-2.89.16l-2.6.18c-.76.06-1.52.13-2.28.17s-1.71.08-2.57.1a1.43,1.43,0,0,1-1.46-1.22,1.36,1.36,0,0,1,.78-1.6A27.31,27.31,0,0,1,128.19,58.79Z"/></g></g></svg>